<?xml version="1.0" encoding="UTF-8" standalone="no"?>
<!DOCTYPE svg PUBLIC "-//W3C//DTD SVG 1.1//EN" "http://www.w3.org/Graphics/SVG/1.1/DTD/svg11.dtd">
<!-- Generated by graphviz version 2.40.1 (20161225.0304)
 -->
<!-- Title: Mir_0_8 Pages: 1 -->
<svg width="259pt" height="345pt" viewBox="0.00 0.00 259.16 344.80" xmlns="http://www.w3.org/2000/svg" xmlns:xlink="http://www.w3.org/1999/xlink">
<g id="graph0" class="graph" transform="scale(1 1) rotate(0) translate(4 340.8)">
<title>Mir_0_8</title>
<polygon fill="#ffffff" stroke="transparent" points="-4,4 -4,-340.8 255.1608,-340.8 255.1608,4 -4,4"/>
<text text-anchor="start" x="8" y="-58.6" font-family="Courier, monospace" font-size="14.00" fill="#000000">fn f() -&gt; Foo</text>
<text text-anchor="start" x="8" y="-41.8" font-family="Courier, monospace" font-size="14.00" fill="#000000">let _1: Foo;</text>
<text text-anchor="start" x="8" y="-25" font-family="Courier, monospace" font-size="14.00" fill="#000000">let _2: ();</text>
<text text-anchor="start" x="8" y="-8.2" font-family="Courier, monospace" font-size="14.00" fill="#000000">debug a =&gt; const Foo {{  }};</text>
<!-- bb0__0_8 -->
<g id="node1" class="node">
<title>bb0__0_8</title>
<polygon fill="#c0c0c0" stroke="transparent" points="29.8304,-310.8 29.8304,-332.8 186.8304,-332.8 186.8304,-310.8 29.8304,-310.8"/>
<polygon fill="none" stroke="#000000" points="29.8304,-310.8 29.8304,-332.8 186.8304,-332.8 186.8304,-310.8 29.8304,-310.8"/>
<text text-anchor="start" x="104.1311" y="-317.2" font-family="Courier, monospace" font-size="14.00" fill="#000000">0</text>
<polygon fill="none" stroke="#000000" points="29.8304,-288.8 29.8304,-310.8 186.8304,-310.8 186.8304,-288.8 29.8304,-288.8"/>
<text text-anchor="start" x="32.743" y="-295.2" font-family="Courier, monospace" font-size="14.00" fill="#000000">_2 = might_panic()</text>
</g>
<!-- bb1__0_8 -->
<g id="node2" class="node">
<title>bb1__0_8</title>
<polygon fill="#c0c0c0" stroke="transparent" points="33.8304,-206 33.8304,-228 89.8304,-228 89.8304,-206 33.8304,-206"/>
<polygon fill="none" stroke="#000000" points="33.8304,-206 33.8304,-228 89.8304,-228 89.8304,-206 33.8304,-206"/>
<text text-anchor="start" x="57.6311" y="-212.4" font-family="Courier, monospace" font-size="14.00" fill="#000000">1</text>
<polygon fill="none" stroke="#000000" points="33.8304,-184 33.8304,-206 89.8304,-206 89.8304,-184 33.8304,-184"/>
<text text-anchor="start" x="36.6346" y="-190.4" font-family="Courier, monospace" font-size="14.00" fill="#000000">return</text>
</g>
<!-- bb0__0_8&#45;&gt;bb1__0_8 -->
<g id="edge1" class="edge">
<title>bb0__0_8-&gt;bb1__0_8</title>
<path fill="none" stroke="#000000" d="M90.6359,-284.3345C87.3372,-278.6754 84.0898,-272.64 81.4388,-266.8 77.8472,-258.888 74.6175,-250.1244 71.8645,-241.7715"/>
<polygon fill="#000000" stroke="#000000" points="75.2017,-240.7163 68.8586,-232.2301 68.5252,-242.8197 75.2017,-240.7163"/>
<text text-anchor="middle" x="106.0262" y="-254.2" font-family="Courier, monospace" font-size="14.00" fill="#000000">return</text>
</g>
<!-- bb2__0_8 -->
<g id="node3" class="node">
<title>bb2__0_8</title>
<polygon fill="#add8e6" stroke="transparent" points="123.8304,-206 123.8304,-228 221.8304,-228 221.8304,-206 123.8304,-206"/>
<polygon fill="none" stroke="#000000" points="123.8304,-206 123.8304,-228 221.8304,-228 221.8304,-206 123.8304,-206"/>
<text text-anchor="start" x="126.6381" y="-212.4" font-family="Courier, monospace" font-size="14.00" fill="#000000">2 (cleanup)</text>
<polygon fill="none" stroke="#000000" points="123.8304,-184 123.8304,-206 221.8304,-206 221.8304,-184 123.8304,-184"/>
<text text-anchor="start" x="126.8304" y="-190.4" font-family="Courier, monospace" font-size="14.00" fill="#000000">drop(_1)</text>
</g>
<!-- bb0__0_8&#45;&gt;bb2__0_8 -->
<g id="edge2" class="edge">
<title>bb0__0_8-&gt;bb2__0_8</title>
<path fill="none" stroke="#000000" d="M124.065,-284.6249C132.2858,-271.3703 142.3775,-255.0995 151.2434,-240.805"/>
<polygon fill="#000000" stroke="#000000" points="154.281,-242.5476 156.5775,-232.2047 148.3323,-238.858 154.281,-242.5476"/>
<text text-anchor="middle" x="169.0262" y="-254.2" font-family="Courier, monospace" font-size="14.00" fill="#000000">unwind</text>
</g>
<!-- bb3__0_8 -->
<g id="node4" class="node">
<title>bb3__0_8</title>
<polygon fill="#add8e6" stroke="transparent" points="123.8304,-101.2 123.8304,-123.2 221.8304,-123.2 221.8304,-101.2 123.8304,-101.2"/>
<polygon fill="none" stroke="#000000" points="123.8304,-101.2 123.8304,-123.2 221.8304,-123.2 221.8304,-101.2 123.8304,-101.2"/>
<text text-anchor="start" x="126.6381" y="-107.6" font-family="Courier, monospace" font-size="14.00" fill="#000000">3 (cleanup)</text>
<polygon fill="none" stroke="#000000" points="123.8304,-79.2 123.8304,-101.2 221.8304,-101.2 221.8304,-79.2 123.8304,-79.2"/>
<text text-anchor="start" x="126.8304" y="-85.6" font-family="Courier, monospace" font-size="14.00" fill="#000000">resume</text>
</g>
<!-- bb2__0_8&#45;&gt;bb3__0_8 -->
<g id="edge3" class="edge">
<title>bb2__0_8-&gt;bb3__0_8</title>
<path fill="none" stroke="#000000" d="M172.8304,-179.8249C172.8304,-167.0705 172.8304,-151.5231 172.8304,-137.6314"/>
<polygon fill="#000000" stroke="#000000" points="176.3305,-137.4046 172.8304,-127.4047 169.3305,-137.4047 176.3305,-137.4046"/>
<text text-anchor="middle" x="198.0262" y="-149.4" font-family="Courier, monospace" font-size="14.00" fill="#000000">return</text>
</g>
</g>
</svg>